<?xml version="1.0" encoding="UTF-8" standalone="no"?>
<svg width="1706px" height="635px" viewBox="0 0 1706 635" version="1.1" xmlns="http://www.w3.org/2000/svg" xmlns:xlink="http://www.w3.org/1999/xlink">
    <!-- Generator: Sketch 3.7 (28169) - http://www.bohemiancoding.com/sketch -->
    <title>1</title>
    <desc>Created with Sketch.</desc>
    <defs></defs>
    <g id="Page-1" stroke="none" stroke-width="1" fill="none" fill-rule="evenodd">
        <g id="Artboard-1">
            <path d="M456.577,562 L124,562 C122.895,562 122,561.104 122,560 C122,558.895 122.895,558 124,558 L456.577,558 C457.682,558 458.577,558.895 458.577,560 C458.577,561.104 457.682,562 456.577,562" id="Fill-188" fill="#47A13C"></path>
            <path d="M1300.337,562 L511,562 C509.896,562 509,561.104 509,560 C509,558.895 509.896,558 511,558 L1300.337,558 C1301.437,558 1302.337,558.895 1302.337,560 C1302.337,561.104 1301.437,562 1300.337,562" id="Fill-189" fill="#47A13C"></path>
            <path d="M1527.23,562 L1360,562 C1358.9,562 1358,561.104 1358,560 C1358,558.895 1358.9,558 1360,558 L1527.23,558 C1528.33,558 1529.23,558.895 1529.23,560 C1529.23,561.104 1528.33,562 1527.23,562" id="Fill-190" fill="#47A13C"></path>
            <path d="M701.02,604 L431,604 C429.895,604 429,603.104 429,602 C429,600.895 429.895,600 431,600 L701.02,600 C702.125,600 703.02,600.895 703.02,602 C703.02,603.104 702.125,604 701.02,604" id="Fill-191" fill="#47A13C"></path>
            <path d="M946.328,604 L766,604 C764.896,604 764,603.104 764,602 C764,600.895 764.896,600 766,600 L946.328,600 C947.428,600 948.328,600.895 948.328,602 C948.328,603.104 947.428,604 946.328,604" id="Fill-192" fill="#47A13C"></path>
            <path d="M1581.62,604 L1014,604 C1012.9,604 1012,603.104 1012,602 C1012,600.895 1012.9,600 1014,600 L1581.62,600 C1582.72,600 1583.62,600.895 1583.62,602 C1583.62,603.104 1582.72,604 1581.62,604" id="Fill-193" fill="#47A13C"></path>
            <path d="M355.626,604 L139,604 C137.896,604 137,603.104 137,602 C137,600.895 137.896,600 139,600 L355.626,600 C356.731,600 357.626,600.895 357.626,602 C357.626,603.104 356.731,604 355.626,604" id="Fill-194" fill="#47A13C"></path>
            <path d="M698.801,516.914 L530,516.914 L530,438 C530,436.896 530.895,436 532,436 C533.104,436 534,436.896 534,438 L534,512.914 L698.801,512.914 C699.906,512.914 700.801,513.809 700.801,514.914 C700.801,516.018 699.906,516.914 698.801,516.914" id="Fill-195" fill="#333232"></path>
            <path d="M698.801,379.425 C697.697,379.425 696.801,378.529 696.801,377.425 L696.801,344.405 C696.801,313.403 679.574,285.506 651.841,271.602 C640.476,265.894 628.214,263 615.394,263 C602.583,263 590.325,265.894 578.961,271.602 C551.227,285.495 534,313.392 534,344.405 L534,376.733 C534,377.838 533.104,378.733 532,378.733 C530.895,378.733 530,377.838 530,376.733 L530,344.405 C530,311.868 548.073,282.601 577.167,268.026 C589.092,262.037 601.954,259 615.394,259 C628.843,259 641.709,262.037 653.635,268.027 C682.728,282.613 700.801,311.88 700.801,344.405 L700.801,377.425 C700.801,378.529 699.906,379.425 698.801,379.425" id="Fill-196" fill="#333232"></path>
            <path d="M719,379.552 C717.895,379.552 717,378.656 717,377.552 L717,313.659 C717,285.726 739.726,263 767.66,263 C795.593,263 818.318,285.726 818.318,313.659 L818.318,338.847 C818.318,339.951 817.423,340.847 816.318,340.847 C815.214,340.847 814.318,339.951 814.318,338.847 L814.318,313.659 C814.318,287.931 793.388,267 767.66,267 C741.932,267 721,287.931 721,313.659 L721,377.552 C721,378.656 720.104,379.552 719,379.552" id="Fill-197" fill="#333232"></path>
            <path d="M751,380.145 C749.896,380.145 749,379.249 749,378.145 L749,314.252 C749,303.636 757.637,295 768.254,295 C778.87,295 787.506,303.636 787.506,314.252 L787.506,339.44 C787.506,340.544 786.611,341.44 785.506,341.44 C784.402,341.44 783.506,340.544 783.506,339.44 L783.506,314.252 C783.506,305.842 776.664,299 768.254,299 C759.843,299 753,305.842 753,314.252 L753,378.145 C753,379.249 752.105,380.145 751,380.145" id="Fill-198" fill="#333232"></path>
            <path d="M681,512.712 L801.235,512.712 L801.235,380 L681,380 L681,512.712 Z M677,516.712 L805.235,516.712 L805.235,376 L677,376 L677,516.712 Z" id="Fill-199" fill="#333232"></path>
            <path d="M876.821,516 L774,516 C772.896,516 772,515.105 772,514 C772,512.896 772.896,512 774,512 L876.821,512 C877.931,512 878.821,512.896 878.821,514 C878.821,515.105 877.931,516 876.821,516" id="Fill-200" fill="#333232"></path>
            <path d="M774,379.542 C772.896,379.542 772,378.646 772,377.542 L772,351 L868.571,351 C869.681,351 870.571,351.896 870.571,353 C870.571,354.105 869.681,355 868.571,355 L776,355 L776,377.542 C776,378.646 775.105,379.542 774,379.542" id="Fill-201" fill="#333232"></path>
            <path d="M869.279,355.166 L762,355.166 L762,337 L870.679,337 C871.779,337 872.679,337.895 872.679,339 C872.679,340.104 871.779,341 870.679,341 L766,341 L766,351.166 L869.279,351.166 C870.389,351.166 871.279,352.062 871.279,353.166 C871.279,354.271 870.389,355.166 869.279,355.166" id="Fill-202" fill="#333232"></path>
            <path d="M657.861,315 C652.424,315 648,319.429 648,324.872 C648,330.309 652.424,334.733 657.861,334.733 C663.304,334.733 667.733,330.309 667.733,324.872 C667.733,319.429 663.304,315 657.861,315 L657.861,315 Z M657.861,338.733 C650.218,338.733 644,332.515 644,324.872 C644,317.223 650.218,311 657.861,311 C665.51,311 671.733,317.223 671.733,324.872 C671.733,332.515 665.51,338.733 657.861,338.733 L657.861,338.733 Z" id="Fill-203" fill="#50B5D1"></path>
            <path d="M614.86,315 C609.423,315 605,319.429 605,324.872 C605,330.309 609.423,334.733 614.86,334.733 C620.304,334.733 624.733,330.309 624.733,324.872 C624.733,319.429 620.304,315 614.86,315 L614.86,315 Z M614.86,338.733 C607.218,338.733 601,332.515 601,324.872 C601,317.223 607.218,311 614.86,311 C622.51,311 628.733,317.223 628.733,324.872 C628.733,332.515 622.51,338.733 614.86,338.733 L614.86,338.733 Z" id="Fill-204" fill="#50B5D1"></path>
            <path d="M571.861,315 C566.424,315 562,319.429 562,324.872 C562,330.309 566.424,334.733 571.861,334.733 C577.304,334.733 581.732,330.309 581.732,324.872 C581.732,319.429 577.304,315 571.861,315 L571.861,315 Z M571.861,338.733 C564.218,338.733 558,332.515 558,324.872 C558,317.223 564.218,311 571.861,311 C579.51,311 585.732,317.223 585.732,324.872 C585.732,332.515 579.51,338.733 571.861,338.733 L571.861,338.733 Z" id="Fill-205" fill="#50B5D1"></path>
            <path d="M655.677,374 L581,374 C579.896,374 579,373.104 579,372 C579,370.895 579.896,370 581,370 L655.677,370 C656.781,370 657.677,370.895 657.677,372 C657.677,373.104 656.781,374 655.677,374" id="Fill-206" fill="#333232"></path>
            <path d="M655.155,397 L607,397 C605.895,397 605,396.104 605,395 C605,393.895 605.895,393 607,393 L655.155,393 C656.259,393 657.155,393.895 657.155,395 C657.155,396.104 656.259,397 655.155,397" id="Fill-207" fill="#333232"></path>
            <path d="M655.196,420 L621,420 C619.895,420 619,419.104 619,418 C619,416.895 619.895,416 621,416 L655.196,416 C656.3,416 657.196,416.895 657.196,418 C657.196,419.104 656.3,420 655.196,420" id="Fill-208" fill="#333232"></path>
            <path d="M668.997,516.404 C668.485,516.404 667.974,516.209 667.583,515.818 L530.764,379 L511,379 C509.895,379 509,378.105 509,377 C509,375.896 509.895,375 511,375 L532.421,375 L670.411,512.989 C671.192,513.77 671.192,515.036 670.412,515.818 C670.021,516.209 669.509,516.404 668.997,516.404" id="Fill-209" fill="#333232"></path>
            <path d="M608.623,516.914 C608.111,516.914 607.599,516.719 607.208,516.328 L538.9,448.019 C535.842,444.961 533.004,442.176 530.778,440 L511,440 C509.895,440 509,439.105 509,438 C509,436.896 509.895,436 511,436 L532.407,436 L532.99,436.569 C535.301,438.826 538.382,441.844 541.729,445.191 L610.037,513.5 C610.818,514.281 610.818,515.548 610.037,516.328 C609.646,516.719 609.135,516.914 608.623,516.914" id="Fill-210" fill="#333232"></path>
            <path d="M627.99975,516.49775 C627.48775,516.49775 626.97575,516.30275 626.58575,515.91175 C625.80475,515.13075 625.80475,513.86475 626.58575,513.08375 L647.08375,492.58575 C647.86375,491.80475 649.13175,491.80475 649.91175,492.58575 C650.69275,493.36675 650.69275,494.63275 649.91175,495.41375 L629.41375,515.91175 C629.02375,516.30275 628.51175,516.49775 627.99975,516.49775" id="Fill-211" fill="#333232"></path>
            <path d="M591.99975,500.18275 C591.48875,500.18275 590.97675,499.98775 590.58575,499.59675 C589.80475,498.81575 589.80475,497.54975 590.58575,496.76875 L620.76775,466.58575 C621.54775,465.80475 622.81475,465.80475 623.59575,466.58575 C624.37675,467.36675 624.37675,468.63375 623.59575,469.41475 L593.41375,499.59675 C593.02375,499.98775 592.51175,500.18275 591.99975,500.18275" id="Fill-212" fill="#333232"></path>
            <path d="M566.00075,474.18275 C565.48875,474.18275 564.97675,473.98775 564.58575,473.59675 C563.80475,472.81575 563.80475,471.54975 564.58575,470.76875 L594.76775,440.58575 C595.54775,439.80475 596.81475,439.80475 597.59575,440.58575 C598.37675,441.36675 598.37675,442.63275 597.59575,443.41475 L567.41475,473.59675 C567.02375,473.98775 566.51175,474.18275 566.00075,474.18275" id="Fill-213" fill="#333232"></path>
            <path d="M539.99975,448.181 C539.48875,448.181 538.97675,447.986 538.58575,447.596 C537.80475,446.815 537.80475,445.548 538.58575,444.767 L568.76675,414.585 C569.54675,413.805 570.81375,413.805 571.59475,414.585 C572.37575,415.366 572.37575,416.633 571.59475,417.414 L541.41375,447.596 C541.02375,447.986 540.51175,448.181 539.99975,448.181" id="Fill-214" fill="#333232"></path>
            <path d="M652.675,272.298 C651.57,272.298 650.675,271.403 650.675,270.298 L650.675,248 L580,248 L580,270.298 C580,271.403 579.105,272.298 578,272.298 C576.896,272.298 576,271.403 576,270.298 L576,244 L654.675,244 L654.675,270.298 C654.675,271.403 653.779,272.298 652.675,272.298" id="Fill-215" fill="#333232"></path>
            <path d="M638.028,248.08 C636.923,248.08 636.028,247.185 636.028,246.08 L636.028,209 L595,209 L595,246.08 C595,247.185 594.105,248.08 593,248.08 C591.896,248.08 591,247.185 591,246.08 L591,205 L640.028,205 L640.028,246.08 C640.028,247.185 639.132,248.08 638.028,248.08" id="Fill-216" fill="#333232"></path>
            <path d="M511,439.49 C509.895,439.49 509,438.595 509,437.49 L509,377 C509,375.896 509.895,375 511,375 C512.104,375 513,375.896 513,377 L513,437.49 C513,438.595 512.104,439.49 511,439.49" id="Fill-217" fill="#333232"></path>
            <path d="M492,444.124 L509.286,444.124 L509.286,371 L492,371 L492,444.124 Z M488,448.124 L513.286,448.124 L513.286,367 L488,367 L488,448.124 Z" id="Fill-218" fill="#333232"></path>
            <path d="M766,460.117 L781.581,460.117 L781.581,428 L766,428 L766,460.117 Z M762,464.117 L785.581,464.117 L785.581,424 L762,424 L762,464.117 Z" id="Fill-219" fill="#50B5D1"></path>
            <path d="M733,460.117 L748.582,460.117 L748.582,428 L733,428 L733,460.117 Z M729,464.117 L752.582,464.117 L752.582,424 L729,424 L729,464.117 Z" id="Fill-220" fill="#50B5D1"></path>
            <path d="M701,460.117 L716.583,460.117 L716.583,428 L701,428 L701,460.117 Z M697,464.117 L720.583,464.117 L720.583,424 L697,424 L697,464.117 Z" id="Fill-221" fill="#50B5D1"></path>
            <path d="M831,403.032 C829.895,403.032 829,402.137 829,401.032 L829,378 C829,376.895 829.895,376 831,376 C832.104,376 833,376.895 833,378 L833,401.032 C833,402.137 832.104,403.032 831,403.032" id="Fill-222" fill="#333232"></path>
            <path d="M831,448.031 C829.895,448.031 829,447.136 829,446.031 L829,423 C829,421.895 829.895,421 831,421 C832.104,421 833,421.895 833,423 L833,446.031 C833,447.136 832.104,448.031 831,448.031" id="Fill-223" fill="#333232"></path>
            <path d="M831,493.032 C829.895,493.032 829,492.137 829,491.032 L829,468 C829,466.896 829.895,466 831,466 C832.104,466 833,466.896 833,468 L833,491.032 C833,492.137 832.104,493.032 831,493.032" id="Fill-224" fill="#333232"></path>
            <path d="M729.993,327 L719,327 C717.895,327 717,326.104 717,325 C717,323.895 717.895,323 719,323 L729.993,323 C731.098,323 731.993,323.895 731.993,325 C731.993,326.104 731.098,327 729.993,327" id="Fill-225" fill="#333232"></path>
            <path d="M729.993,341 L719,341 C717.895,341 717,340.104 717,339 C717,337.895 717.895,337 719,337 L729.993,337 C731.098,337 731.993,337.895 731.993,339 C731.993,340.104 731.098,341 729.993,341" id="Fill-226" fill="#333232"></path>
            <path d="M729.993,355 L719,355 C717.895,355 717,354.105 717,353 C717,351.896 717.895,351 719,351 L729.993,351 C731.098,351 731.993,351.896 731.993,353 C731.993,354.105 731.098,355 729.993,355" id="Fill-227" fill="#333232"></path>
            <path d="M531.506,403 L524,403 C522.895,403 522,402.105 522,401 C522,399.896 522.895,399 524,399 L531.506,399 C532.61,399 533.506,399.896 533.506,401 C533.506,402.105 532.61,403 531.506,403" id="Fill-228" fill="#333232"></path>
            <path d="M531.506,415 L524,415 C522.895,415 522,414.104 522,413 C522,411.895 522.895,411 524,411 L531.506,411 C532.61,411 533.506,411.895 533.506,413 C533.506,414.104 532.61,415 531.506,415" id="Fill-229" fill="#333232"></path>
            <path d="M619.873,220 L593,220 C591.896,220 591,219.105 591,218 C591,216.896 591.896,216 593,216 L619.873,216 C620.978,216 621.873,216.896 621.873,218 C621.873,219.105 620.978,220 619.873,220" id="Fill-230" fill="#333232"></path>
            <path d="M619.873,233 L593,233 C591.896,233 591,232.104 591,231 C591,229.895 591.896,229 593,229 L619.873,229 C620.978,229 621.873,229.895 621.873,231 C621.873,232.104 620.978,233 619.873,233" id="Fill-231" fill="#333232"></path>
            <path d="M984.82,472.239 C983.72,472.239 982.82,471.344 982.82,470.239 L982.82,414.319 C982.82,401.284 976.28,389.258 965.33,382.151 C959.12,378.127 951.92,376 944.5,376 C932.81,376 921.92,381.231 914.6,390.353 C914.24,390.842 913.65,391.158 913,391.158 C911.89,391.158 911,390.267 911,389.163 L911,388.453 L911.44,387.905 C919.52,377.797 931.57,372 944.5,372 C952.69,372 960.65,374.35 967.5,378.796 C979.6,386.643 986.82,399.923 986.82,414.319 L986.82,470.239 C986.82,471.344 985.92,472.239 984.82,472.239" id="Fill-232" fill="#333232"></path>
            <path d="M923.560111,498.130724 C922.540111,498.130724 921.670111,497.358724 921.570111,496.325724 L919.010111,470.194724 C918.900111,469.095724 919.700111,468.116724 920.800111,468.009724 C921.900111,467.901724 922.880111,468.705724 922.990111,469.804724 L925.550111,495.934724 C925.660111,497.034724 924.850111,498.012724 923.750111,498.120724 C923.690111,498.127724 923.620111,498.130724 923.560111,498.130724" id="Fill-233" fill="#333232"></path>
            <path d="M1116.64,472.217 C1115.53,472.217 1114.64,471.322 1114.64,470.217 L1114.64,400.319 C1114.64,381.611 1101.27,365.728 1082.86,362.554 C1080.71,362.187 1078.51,362 1076.32,362 C1069.2,362 1062.24,363.971 1056.21,367.701 C1044.8,374.744 1038,386.937 1038,400.319 L1038,470.217 C1038,471.322 1037.1,472.217 1036,472.217 C1034.89,472.217 1034,471.322 1034,470.217 L1034,400.319 C1034,385.54 1041.51,372.074 1054.11,364.298 C1060.77,360.178 1068.46,358 1076.32,358 C1078.74,358 1081.17,358.206 1083.54,358.612 C1103.88,362.118 1118.64,379.658 1118.64,400.319 L1118.64,470.217 C1118.64,471.322 1117.74,472.217 1116.64,472.217" id="Fill-234" fill="#333232"></path>
            <path d="M967,382.571 C965.9,382.571 965,381.675 965,380.571 L965,363.92 C965,357.269 966.39,350.866 969.12,344.89 C976.57,328.556 992.98,318 1010.92,318 C1028.86,318 1045.27,328.556 1052.73,344.892 C1055.46,350.874 1056.85,357.276 1056.85,363.92 L1056.85,366.119 C1056.85,367.223 1055.95,368.119 1054.85,368.119 C1053.74,368.119 1052.85,367.223 1052.85,366.119 L1052.85,363.92 C1052.85,357.854 1051.58,352.011 1049.09,346.553 C1042.28,331.637 1027.3,322 1010.92,322 C994.54,322 979.56,331.637 972.76,346.552 C970.27,352.004 969,357.847 969,363.92 L969,380.571 C969,381.675 968.11,382.571 967,382.571" id="Fill-235" fill="#333232"></path>
            <path d="M932.21,265 C928.78,265 926,267.785 926,271.207 L926,283.37 C926,286.791 928.78,289.575 932.21,289.575 L942.85,289.575 L942.85,271.207 C942.85,267.785 940.07,265 936.65,265 L932.21,265 L932.21,265 Z M1044.53,277.766 L1044.53,291.266 C1044.53,294.688 1047.32,297.472 1050.74,297.472 L1054.38,297.472 C1057.81,297.472 1060.59,294.688 1060.59,291.266 L1060.59,283.972 C1060.59,280.55 1057.81,277.766 1054.38,277.766 L1044.53,277.766 L1044.53,277.766 Z M944.85,376.048 C943.75,376.048 942.85,375.152 942.85,374.048 L942.85,293.575 L932.21,293.575 C926.58,293.575 922,288.997 922,283.37 L922,271.207 C922,265.579 926.58,261 932.21,261 L936.65,261 C942.27,261 946.85,265.579 946.85,271.207 L946.85,289.575 L987.52,289.575 C993.15,289.575 997.73,294.154 997.73,299.782 L997.73,304.039 C997.73,307.462 1000.51,310.247 1003.94,310.247 L1015.49,310.247 C1018.91,310.247 1021.69,307.462 1021.69,304.039 L1021.69,283.972 C1021.69,278.344 1026.27,273.766 1031.9,273.766 L1040.53,273.766 L1040.53,271.207 C1040.53,265.579 1045.11,261 1050.74,261 L1074.45,261 C1080.07,261 1084.65,265.579 1084.65,271.207 L1084.65,360.653 C1084.65,361.758 1083.76,362.653 1082.65,362.653 C1081.55,362.653 1080.65,361.758 1080.65,360.653 L1080.65,271.207 C1080.65,267.785 1077.87,265 1074.45,265 L1050.74,265 C1047.32,265 1044.53,267.785 1044.53,271.207 L1044.53,273.766 L1054.38,273.766 C1060.01,273.766 1064.59,278.344 1064.59,283.972 L1064.59,291.266 C1064.59,296.894 1060.01,301.472 1054.38,301.472 L1050.74,301.472 C1045.11,301.472 1040.53,296.894 1040.53,291.266 L1040.53,277.766 L1031.9,277.766 C1028.48,277.766 1025.69,280.55 1025.69,283.972 L1025.69,304.039 C1025.69,309.668 1021.11,314.247 1015.49,314.247 L1003.94,314.247 C998.31,314.247 993.73,309.668 993.73,304.039 L993.73,299.782 C993.73,296.36 990.94,293.575 987.52,293.575 L946.85,293.575 L946.85,374.048 C946.85,375.152 945.96,376.048 944.85,376.048 L944.85,376.048 Z" id="Fill-236" fill="#333232"></path>
            <path d="M1122.83,416 L1028,416 C1026.9,416 1026,415.104 1026,414 C1026,412.895 1026.9,412 1028,412 L1122.83,412 C1123.93,412 1124.83,412.895 1124.83,414 C1124.83,415.104 1123.93,416 1122.83,416" id="Fill-237" fill="#333232"></path>
            <path d="M1058.65,347 L962,347 C960.89,347 960,346.105 960,345 C960,343.896 960.89,343 962,343 L1058.65,343 C1059.75,343 1060.65,343.896 1060.65,345 C1060.65,346.105 1059.75,347 1058.65,347" id="Fill-238" fill="#333232"></path>
            <path d="M990.27,362 C988.47,362 987,363.463 987,365.262 C987,367.06 988.47,368.523 990.27,368.523 C992.06,368.523 993.52,367.06 993.52,365.262 C993.52,363.463 992.06,362 990.27,362 L990.27,362 Z M990.27,372.523 C986.26,372.523 983,369.266 983,365.262 C983,361.258 986.26,358 990.27,358 C994.27,358 997.52,361.258 997.52,365.262 C997.52,369.266 994.27,372.523 990.27,372.523 L990.27,372.523 Z" id="Fill-239" fill="#50B5D1"></path>
            <path d="M1010.26,362 C1008.46,362 1007,363.463 1007,365.262 C1007,367.06 1008.46,368.523 1010.26,368.523 C1012.06,368.523 1013.52,367.06 1013.52,365.262 C1013.52,363.463 1012.06,362 1010.26,362 L1010.26,362 Z M1010.26,372.523 C1006.26,372.523 1003,369.266 1003,365.262 C1003,361.258 1006.26,358 1010.26,358 C1014.27,358 1017.52,361.258 1017.52,365.262 C1017.52,369.266 1014.27,372.523 1010.26,372.523 L1010.26,372.523 Z" id="Fill-240" fill="#50B5D1"></path>
            <path d="M1031.26,362 C1029.46,362 1028,363.463 1028,365.262 C1028,367.06 1029.46,368.523 1031.26,368.523 C1033.06,368.523 1034.52,367.06 1034.52,365.262 C1034.52,363.463 1033.06,362 1031.26,362 L1031.26,362 Z M1031.26,372.523 C1027.26,372.523 1024,369.266 1024,365.262 C1024,361.258 1027.26,358 1031.26,358 C1035.27,358 1038.52,361.258 1038.52,365.262 C1038.52,369.266 1035.27,372.523 1031.26,372.523 L1031.26,372.523 Z" id="Fill-241" fill="#50B5D1"></path>
            <path d="M1154.539,516.37 L853,516.37 C851.895,516.37 851,515.475 851,514.37 C851,513.266 851.895,512.37 853,512.37 L1150.539,512.37 L1150.539,498.131 L1129.259,498.131 L1129.259,472 L921.299,472 C920.189,472 919.299,471.105 919.299,470 C919.299,468.896 920.189,468 921.299,468 L1133.259,468 L1133.259,494.131 L1154.539,494.131 L1154.539,516.37" id="Fill-242" fill="#333232"></path>
            <path d="M853.001895,516.663046 C852.936895,516.663046 852.870895,516.659046 852.803895,516.653046 C851.704895,516.544046 850.900895,515.565046 851.009895,514.466046 L875.738895,262.805046 C875.848895,261.706046 876.818895,260.900046 877.918895,261.010046 C879.018895,261.118046 879.828895,262.096046 879.718895,263.195046 L854.989895,514.859046 C854.888895,515.891046 854.018895,516.663046 853.001895,516.663046" id="Fill-243" fill="#333232"></path>
            <path d="M925.720005,516.663046 C924.710005,516.663046 923.840005,515.891046 923.740005,514.858046 L899.010005,263.195046 C898.900005,262.096046 899.710005,261.118046 900.800005,261.010046 C901.900005,260.900046 902.880005,261.706046 902.990005,262.805046 L927.720005,514.466046 C927.820005,515.565046 927.020005,516.544046 925.920005,516.653046 C925.860005,516.659046 925.790005,516.663046 925.720005,516.663046" id="Fill-244" fill="#333232"></path>
            <path d="M901.19,265 L878,265 C876.89,265 876,264.105 876,263 C876,261.896 876.89,261 878,261 L901.19,261 C902.29,261 903.19,261.896 903.19,263 C903.19,264.105 902.29,265 901.19,265" id="Fill-245" fill="#333232"></path>
            <path d="M904.52,297 L875,297 C873.9,297 873,296.104 873,295 C873,293.895 873.9,293 875,293 L904.52,293 C905.63,293 906.52,293.895 906.52,295 C906.52,296.104 905.63,297 904.52,297" id="Fill-246" fill="#333232"></path>
            <path d="M905.27,311 L873,311 C871.89,311 871,310.105 871,309 C871,307.896 871.89,307 873,307 L905.27,307 C906.38,307 907.27,307.896 907.27,309 C907.27,310.105 906.38,311 905.27,311" id="Fill-247" fill="#333232"></path>
            <path d="M909.89,355 L869,355 C867.9,355 867,354.105 867,353 C867,351.896 867.9,351 869,351 L909.89,351 C910.99,351 911.89,351.896 911.89,353 C911.89,354.105 910.99,355 909.89,355" id="Fill-248" fill="#333232"></path>
            <path d="M911.64,369 L868,369 C866.9,369 866,368.104 866,367 C866,365.895 866.9,365 868,365 L911.64,365 C912.75,365 913.64,365.895 913.64,367 C913.64,368.104 912.75,369 911.64,369" id="Fill-249" fill="#333232"></path>
            <path d="M915.26,413 L863,413 C861.89,413 861,412.105 861,411 C861,409.896 861.89,409 863,409 L915.26,409 C916.37,409 917.26,409.896 917.26,411 C917.26,412.105 916.37,413 915.26,413" id="Fill-250" fill="#333232"></path>
            <path d="M917.01,427 L862,427 C860.89,427 860,426.105 860,425 C860,423.896 860.89,423 862,423 L917.01,423 C918.12,423 919.01,423.896 919.01,425 C919.01,426.105 918.12,427 917.01,427" id="Fill-251" fill="#333232"></path>
            <path d="M943,494.558 C941.89,494.558 941,493.663 941,492.558 L941,488 C941,486.895 941.89,486 943,486 C944.1,486 945,486.895 945,488 L945,492.558 C945,493.663 944.1,494.558 943,494.558" id="Fill-252" fill="#333232"></path>
            <path d="M967,494.558 C965.9,494.558 965,493.663 965,492.558 L965,488 C965,486.895 965.9,486 967,486 C968.11,486 969,486.895 969,488 L969,492.558 C969,493.663 968.11,494.558 967,494.558" id="Fill-253" fill="#333232"></path>
            <path d="M991,494.558 C989.9,494.558 989,493.663 989,492.558 L989,488 C989,486.895 989.9,486 991,486 C992.11,486 993,486.895 993,488 L993,492.558 C993,493.663 992.11,494.558 991,494.558" id="Fill-254" fill="#333232"></path>
            <path d="M1015,494.558 C1013.89,494.558 1013,493.663 1013,492.558 L1013,488 C1013,486.895 1013.89,486 1015,486 C1016.1,486 1017,486.895 1017,488 L1017,492.558 C1017,493.663 1016.1,494.558 1015,494.558" id="Fill-255" fill="#333232"></path>
            <path d="M1039,494.558 C1037.89,494.558 1037,493.663 1037,492.558 L1037,488 C1037,486.895 1037.89,486 1039,486 C1040.1,486 1041,486.895 1041,488 L1041,492.558 C1041,493.663 1040.1,494.558 1039,494.558" id="Fill-256" fill="#333232"></path>
            <path d="M1063,494.558 C1061.9,494.558 1061,493.663 1061,492.558 L1061,488 C1061,486.895 1061.9,486 1063,486 C1064.11,486 1065,486.895 1065,488 L1065,492.558 C1065,493.663 1064.11,494.558 1063,494.558" id="Fill-257" fill="#333232"></path>
            <path d="M1086,494.558 C1084.9,494.558 1084,493.663 1084,492.558 L1084,488 C1084,486.895 1084.9,486 1086,486 C1087.11,486 1088,486.895 1088,488 L1088,492.558 C1088,493.663 1087.11,494.558 1086,494.558" id="Fill-258" fill="#333232"></path>
            <path d="M1110,494.558 C1108.89,494.558 1108,493.663 1108,492.558 L1108,488 C1108,486.895 1108.89,486 1110,486 C1111.1,486 1112,486.895 1112,488 L1112,492.558 C1112,493.663 1111.1,494.558 1110,494.558" id="Fill-259" fill="#333232"></path>
            <path d="M995.83,427 L917,427 C915.89,427 915,426.104 915,425 C915,423.895 915.89,423 917,423 L995.83,423 C996.94,423 997.83,423.895 997.83,425 C997.83,426.104 996.94,427 995.83,427" id="Fill-260" fill="#333232"></path>
            <path d="M936,457.806 C934.9,457.806 934,456.91 934,455.806 L934,440 C934,438.896 934.9,438 936,438 C937.11,438 938,438.896 938,440 L938,455.806 C938,456.91 937.11,457.806 936,457.806" id="Fill-261" fill="#333232"></path>
            <path d="M953,457.806 C951.9,457.806 951,456.91 951,455.806 L951,440 C951,438.896 951.9,438 953,438 C954.1,438 955,438.896 955,440 L955,455.806 C955,456.91 954.1,457.806 953,457.806" id="Fill-262" fill="#333232"></path>
            <path d="M971,457.806 C969.9,457.806 969,456.91 969,455.806 L969,440 C969,438.896 969.9,438 971,438 C972.1,438 973,438.896 973,440 L973,455.806 C973,456.91 972.1,457.806 971,457.806" id="Fill-263" fill="#333232"></path>
            <path d="M1056.99,455 L1045,455 C1043.89,455 1043,454.105 1043,453 C1043,451.896 1043.89,451 1045,451 L1056.99,451 C1058.1,451 1058.99,451.896 1058.99,453 C1058.99,454.105 1058.1,455 1056.99,455" id="Fill-264" fill="#333232"></path>
            <path d="M1083,455 L1071,455 C1069.9,455 1069,454.105 1069,453 C1069,451.896 1069.9,451 1071,451 L1083,451 C1084.1,451 1085,451.896 1085,453 C1085,454.105 1084.1,455 1083,455" id="Fill-265" fill="#333232"></path>
            <path d="M1108.99,455 L1097,455 C1095.89,455 1095,454.105 1095,453 C1095,451.896 1095.89,451 1097,451 L1108.99,451 C1110.1,451 1110.99,451.896 1110.99,453 C1110.99,454.105 1110.1,455 1108.99,455" id="Fill-266" fill="#333232"></path>
            <path d="M1056.99,442 L1045,442 C1043.89,442 1043,441.105 1043,440 C1043,438.896 1043.89,438 1045,438 L1056.99,438 C1058.1,438 1058.99,438.896 1058.99,440 C1058.99,441.105 1058.1,442 1056.99,442" id="Fill-267" fill="#333232"></path>
            <path d="M1083,442 L1071,442 C1069.9,442 1069,441.105 1069,440 C1069,438.896 1069.9,438 1071,438 L1083,438 C1084.1,438 1085,438.896 1085,440 C1085,441.105 1084.1,442 1083,442" id="Fill-268" fill="#333232"></path>
            <path d="M1108.99,442 L1097,442 C1095.89,442 1095,441.105 1095,440 C1095,438.896 1095.89,438 1097,438 L1108.99,438 C1110.1,438 1110.99,438.896 1110.99,440 C1110.99,441.105 1110.1,442 1108.99,442" id="Fill-269" fill="#333232"></path>
            <path d="M963.614733,225.398 L964.814733,228.958 C970.784733,246.715 985.384733,257.316 1003.88473,257.315 C1027.13473,257.314 1048.38473,240.944 1058.01473,215.611 C1066.07473,194.391 1064.37473,173.052 1053.34473,157.065 C1044.54473,144.314 1031.14473,137 1016.56473,137 C1004.97473,137 993.314733,141.703 982.844733,150.6 L981.444733,151.793 L980.134733,150.492 C972.284733,142.658 962.524733,138.517 951.894733,138.517 C939.884733,138.517 928.004733,144.01 920.124733,153.21 C912.484733,162.129 909.304733,173.644 911.164733,185.635 L911.564733,188.184 L908.994733,187.932 C907.714733,187.806 906.414733,187.742 905.164733,187.742 C892.224733,187.742 880.954733,194.712 875.014733,206.386 C869.114733,217.998 869.764733,231.821 876.614733,241.907 L890.404733,241.907 C888.804733,237.708 886.994733,229.839 892.064733,222.969 C894.934733,218.988 899.644733,216.601 904.664733,216.601 C908.944733,216.601 912.934733,218.302 915.914733,221.392 L926.584733,232.492 C931.604733,237.674 936.784733,240.304 941.964733,240.304 C951.184733,240.304 958.574733,231.963 961.334733,228.377 L963.614733,225.398 L963.614733,225.398 Z M1003.88473,261.315 C984.764733,261.316 969.434733,251.002 962.254733,233.534 C957.904733,238.412 950.814733,244.304 941.964733,244.304 C935.654733,244.304 929.514733,241.264 923.704733,235.27 L913.024733,224.164 C910.814733,221.866 907.844733,220.601 904.664733,220.601 C900.924733,220.601 897.424733,222.367 895.294733,225.325 C889.654733,232.982 895.194733,242.811 895.244733,242.909 L896.974733,245.907 L874.554733,245.907 L873.954733,245.084 C865.694733,233.733 864.704733,217.831 871.454733,204.572 C878.094733,191.529 890.694733,183.742 905.164733,183.742 C905.734733,183.742 906.314733,183.754 906.894733,183.778 C905.634733,171.509 909.204733,159.812 917.094733,150.607 C925.724733,140.532 938.734733,134.517 951.894733,134.517 C963.014733,134.517 973.264733,138.617 981.654733,146.396 C992.494733,137.625 1004.53473,133 1016.56473,133 C1032.47473,133 1047.08473,140.944 1056.63473,154.794 C1068.42473,171.879 1070.28473,194.564 1061.75473,217.032 C1051.52473,243.931 1028.80473,261.314 1003.88473,261.315 L1003.88473,261.315 Z" id="Fill-270" fill="#B0B0B0"></path>
            <path d="M1404,512.44 L1508.95,512.44 L1508.95,431.478 C1508.95,420.251 1505.45,409.541 1498.83,400.504 C1494.95,395.202 1490.18,390.722 1484.62,387.185 C1476.23,381.83 1466.5,379 1456.48,379 C1449.44,379 1442.61,380.375 1436.18,383.086 C1430.65,385.393 1425.61,388.614 1421.18,392.66 C1412.72,400.338 1406.94,410.729 1404.88,421.923 C1404.3,425.065 1404,428.279 1404,431.478 L1404,512.44 L1404,512.44 Z M1512.95,516.44 L1400,516.44 L1400,431.478 C1400,428.036 1400.32,424.577 1400.94,421.198 C1403.16,409.149 1409.39,397.963 1418.48,389.703 C1423.25,385.348 1428.69,381.88 1434.63,379.397 C1441.55,376.48 1448.9,375 1456.48,375 C1467.26,375 1477.73,378.047 1486.77,383.812 C1492.75,387.617 1497.89,392.438 1502.05,398.141 C1509.18,407.867 1512.95,419.395 1512.95,431.478 L1512.95,516.44 L1512.95,516.44 Z" id="Fill-277" fill="#333232"></path>
            <path d="M1217,423.264 C1215.9,423.264 1215,422.368 1215,421.264 L1215,332 C1215,330.896 1215.9,330 1217,330 C1218.1,330 1219,330.896 1219,332 L1219,421.264 C1219,422.368 1218.1,423.264 1217,423.264" id="Fill-278" fill="#333232"></path>
            <path d="M1216.7,516.142 L1151,516.142 L1151,332 C1151,330.896 1151.9,330 1153,330 C1154.11,330 1155,330.896 1155,332 L1155,512.142 L1216.7,512.142 C1217.8,512.142 1218.7,513.037 1218.7,514.142 C1218.7,515.246 1217.8,516.142 1216.7,516.142" id="Fill-279" fill="#333232"></path>
            <path d="M1216.7,311.551 C1215.6,311.551 1214.7,310.656 1214.7,309.551 L1214.7,300.844 C1214.7,285.301 1202.57,272.236 1187.09,271.1 C1186.33,271.033 1185.58,271 1184.85,271 C1168.39,271 1155,284.388 1155,300.844 L1155,309.551 C1155,310.656 1154.11,311.551 1153,311.551 C1151.9,311.551 1151,310.656 1151,309.551 L1151,300.844 C1151,282.182 1166.18,267 1184.85,267 C1185.7,267 1186.56,267.038 1187.41,267.113 C1204.95,268.399 1218.7,283.217 1218.7,300.844 L1218.7,309.551 C1218.7,310.656 1217.8,311.551 1216.7,311.551" id="Fill-280" fill="#333232"></path>
            <path d="M1146,330.25 L1222.6,330.25 L1222.6,311 L1146,311 L1146,330.25 Z M1142,334.25 L1226.6,334.25 L1226.6,307 L1142,307 L1142,334.25 Z" id="Fill-281" fill="#333232"></path>
            <path d="M1555.39,516 L1153,516 C1151.9,516 1151,515.104 1151,514 C1151,512.895 1151.9,512 1153,512 L1555.39,512 C1556.5,512 1557.39,512.895 1557.39,514 C1557.39,515.104 1556.5,516 1555.39,516" id="Fill-282" fill="#333232"></path>
            <path d="M1555.02,516.383 C1553.92,516.383 1553.02,515.487 1553.02,514.383 L1553.02,319 L1502,319 L1502,399.264 C1502,400.369 1501.1,401.264 1500,401.264 C1498.9,401.264 1498,400.369 1498,399.264 L1498,315 L1557.02,315 L1557.02,514.383 C1557.02,515.487 1556.13,516.383 1555.02,516.383" id="Fill-283" fill="#333232"></path>
            <path d="M1485.29403,387.251 C1484.31403,387.251 1483.46403,386.541 1483.31403,385.551 L1479.90403,363 L1439.74403,363 L1436.97403,381.295 C1436.81403,382.387 1435.79403,383.138 1434.70403,382.974 C1433.60403,382.809 1432.85403,381.789 1433.02403,380.697 L1436.30403,359 L1483.33403,359 L1487.27403,384.951 C1487.43403,386.044 1486.68403,387.063 1485.59403,387.229 C1485.49403,387.244 1485.39403,387.251 1485.29403,387.251" id="Fill-284" fill="#333232"></path>
            <path d="M1555.37,482 L1536,482 C1534.89,482 1534,481.104 1534,480 C1534,478.895 1534.89,478 1536,478 L1555.37,478 C1556.48,478 1557.37,478.895 1557.37,480 C1557.37,481.104 1556.48,482 1555.37,482" id="Fill-285" fill="#333232"></path>
            <path d="M1555.37,458 L1536,458 C1534.89,458 1534,457.105 1534,456 C1534,454.896 1534.89,454 1536,454 L1555.37,454 C1556.48,454 1557.37,454.896 1557.37,456 C1557.37,457.105 1556.48,458 1555.37,458" id="Fill-286" fill="#333232"></path>
            <path d="M1555.37,433 L1536,433 C1534.89,433 1534,432.104 1534,431 C1534,429.895 1534.89,429 1536,429 L1555.37,429 C1556.48,429 1557.37,429.895 1557.37,431 C1557.37,432.104 1556.48,433 1555.37,433" id="Fill-287" fill="#333232"></path>
            <path d="M1555.37,408 L1536,408 C1534.89,408 1534,407.104 1534,406 C1534,404.895 1534.89,404 1536,404 L1555.37,404 C1556.48,404 1557.37,404.895 1557.37,406 C1557.37,407.104 1556.48,408 1555.37,408" id="Fill-288" fill="#333232"></path>
            <path d="M1555.37,383 L1536,383 C1534.89,383 1534,382.105 1534,381 C1534,379.896 1534.89,379 1536,379 L1555.37,379 C1556.48,379 1557.37,379.896 1557.37,381 C1557.37,382.105 1556.48,383 1555.37,383" id="Fill-289" fill="#333232"></path>
            <path d="M1555.37,358 L1536,358 C1534.89,358 1534,357.104 1534,356 C1534,354.895 1534.89,354 1536,354 L1555.37,354 C1556.48,354 1557.37,354.895 1557.37,356 C1557.37,357.104 1556.48,358 1555.37,358" id="Fill-290" fill="#333232"></path>
            <path d="M1410.46,516.878 L1193,516.878 L1193,420 L1402.85,420 C1403.96,420 1404.85,420.895 1404.85,422 C1404.85,423.104 1403.96,424 1402.85,424 L1197,424 L1197,512.878 L1410.46,512.878 C1411.57,512.878 1412.46,513.773 1412.46,514.878 C1412.46,515.982 1411.57,516.878 1410.46,516.878" id="Fill-291" fill="#333232"></path>
            <path d="M1239,424.067 C1237.9,424.067 1237,423.171 1237,422.067 L1237,376.677 L1280.68,333 L1421.59,333 L1421.59,391.689 C1421.59,392.793 1420.69,393.689 1419.59,393.689 C1418.48,393.689 1417.59,392.793 1417.59,391.689 L1417.59,337 L1282.34,337 L1241,378.333 L1241,422.067 C1241,423.171 1240.11,424.067 1239,424.067" id="Fill-292" fill="#333232"></path>
            <path d="M1290,397.63 L1300.73,397.63 L1300.73,355 L1290,355 L1290,397.63 Z M1286,401.63 L1304.73,401.63 L1304.73,351 L1286,351 L1286,401.63 Z" id="Fill-293" fill="#50B5D1"></path>
            <path d="M1333,397.63 L1343.73,397.63 L1343.73,355 L1333,355 L1333,397.63 Z M1329,401.63 L1347.73,401.63 L1347.73,351 L1329,351 L1329,401.63 Z" id="Fill-294" fill="#50B5D1"></path>
            <path d="M1376,397.63 L1386.71,397.63 L1386.71,355 L1376,355 L1376,397.63 Z M1372,401.63 L1390.71,401.63 L1390.71,351 L1372,351 L1372,401.63 Z" id="Fill-295" fill="#50B5D1"></path>
            <path d="M1329.67,336.956 C1328.57,336.956 1327.67,336.061 1327.67,334.956 L1327.67,288 L1315,288 L1315,334.956 C1315,336.061 1314.1,336.956 1313,336.956 C1311.89,336.956 1311,336.061 1311,334.956 L1311,284 L1331.67,284 L1331.67,334.956 C1331.67,336.061 1330.78,336.956 1329.67,336.956" id="Fill-296" fill="#333232"></path>
            <path d="M1366.66,336.408 C1365.55,336.408 1364.66,335.513 1364.66,334.408 L1364.66,289 L1352,289 L1352,334.408 C1352,335.513 1351.1,336.408 1350,336.408 C1348.89,336.408 1348,335.513 1348,334.408 L1348,285 L1368.66,285 L1368.66,334.408 C1368.66,335.513 1367.76,336.408 1366.66,336.408" id="Fill-297" fill="#333232"></path>
            <path d="M1402.66,336.863 C1401.55,336.863 1400.66,335.968 1400.66,334.863 L1400.66,291 L1388,291 L1388,334.863 C1388,335.968 1387.1,336.863 1386,336.863 C1384.89,336.863 1384,335.968 1384,334.863 L1384,287 L1404.66,287 L1404.66,334.863 C1404.66,335.968 1403.76,336.863 1402.66,336.863" id="Fill-298" fill="#333232"></path>
            <path d="M1456.17,363.508 C1455.07,363.508 1454.17,362.613 1454.17,361.508 L1454.17,298.809 C1454.17,280.911 1439.61,266.35 1421.71,266.35 L1349.58,266.35 C1332.66,266.35 1318.89,252.592 1318.89,235.681 C1318.89,220.969 1306.93,209 1292.21,209 L1221.46,209 C1203.56,209 1189,223.561 1189,241.459 L1189,268.861 C1189,269.966 1188.1,270.861 1187,270.861 C1185.9,270.861 1185,269.966 1185,268.861 L1185,241.459 C1185,221.355 1201.36,205 1221.46,205 L1292.21,205 C1309.13,205 1322.89,218.763 1322.89,235.681 C1322.89,250.386 1334.86,262.35 1349.58,262.35 L1421.71,262.35 C1441.82,262.35 1458.17,278.706 1458.17,298.809 L1458.17,361.508 C1458.17,362.613 1457.28,363.508 1456.17,363.508" id="Fill-299" fill="#333232"></path>
            <path d="M1469,363.312 C1467.9,363.312 1467,362.417 1467,361.312 L1467,247.46 C1467,227.356 1483.36,211 1503.46,211 L1504.3,211 C1524.4,211 1540.76,227.356 1540.76,247.46 L1540.76,317.122 C1540.76,318.226 1539.86,319.122 1538.76,319.122 C1537.65,319.122 1536.76,318.226 1536.76,317.122 L1536.76,247.46 C1536.76,229.561 1522.2,215 1504.3,215 L1503.46,215 C1485.56,215 1471,229.561 1471,247.46 L1471,361.312 C1471,362.417 1470.11,363.312 1469,363.312" id="Fill-300" fill="#333232"></path>
            <path d="M1510.95,467 L1402,467 C1400.9,467 1400,466.104 1400,465 C1400,463.895 1400.9,463 1402,463 L1510.95,463 C1512.06,463 1512.95,463.895 1512.95,465 C1512.95,466.104 1512.06,467 1510.95,467" id="Fill-301" fill="#333232"></path>
            <path d="M1401.94,500 L1195,500 C1193.9,500 1193,499.105 1193,498 C1193,496.896 1193.9,496 1195,496 L1401.94,496 C1403.05,496 1403.94,496.896 1403.94,498 C1403.94,499.105 1403.05,500 1401.94,500" id="Fill-302" fill="#333232"></path>
            <path d="M1220,457.811 C1218.9,457.811 1218,456.916 1218,455.811 L1218,446 C1218,444.896 1218.9,444 1220,444 C1221.1,444 1222,444.896 1222,446 L1222,455.811 C1222,456.916 1221.1,457.811 1220,457.811" id="Fill-303" fill="#333232"></path>
            <path d="M1231,457.811 C1229.89,457.811 1229,456.916 1229,455.811 L1229,446 C1229,444.896 1229.89,444 1231,444 C1232.1,444 1233,444.896 1233,446 L1233,455.811 C1233,456.916 1232.1,457.811 1231,457.811" id="Fill-304" fill="#333232"></path>
            <path d="M1259,457.811 C1257.9,457.811 1257,456.916 1257,455.811 L1257,446 C1257,444.896 1257.9,444 1259,444 C1260.11,444 1261,444.896 1261,446 L1261,455.811 C1261,456.916 1260.11,457.811 1259,457.811" id="Fill-305" fill="#333232"></path>
            <path d="M1270,457.811 C1268.89,457.811 1268,456.916 1268,455.811 L1268,446 C1268,444.896 1268.89,444 1270,444 C1271.1,444 1272,444.896 1272,446 L1272,455.811 C1272,456.916 1271.1,457.811 1270,457.811" id="Fill-306" fill="#333232"></path>
            <path d="M1297,457.811 C1295.9,457.811 1295,456.916 1295,455.811 L1295,446 C1295,444.896 1295.9,444 1297,444 C1298.11,444 1299,444.896 1299,446 L1299,455.811 C1299,456.916 1298.11,457.811 1297,457.811" id="Fill-307" fill="#333232"></path>
            <path d="M1308,457.811 C1306.89,457.811 1306,456.916 1306,455.811 L1306,446 C1306,444.896 1306.89,444 1308,444 C1309.1,444 1310,444.896 1310,446 L1310,455.811 C1310,456.916 1309.1,457.811 1308,457.811" id="Fill-308" fill="#333232"></path>
            <path d="M1336,457.811 C1334.89,457.811 1334,456.916 1334,455.811 L1334,446 C1334,444.896 1334.89,444 1336,444 C1337.1,444 1338,444.896 1338,446 L1338,455.811 C1338,456.916 1337.1,457.811 1336,457.811" id="Fill-309" fill="#333232"></path>
            <path d="M1347,457.811 C1345.89,457.811 1345,456.916 1345,455.811 L1345,446 C1345,444.896 1345.89,444 1347,444 C1348.1,444 1349,444.896 1349,446 L1349,455.811 C1349,456.916 1348.1,457.811 1347,457.811" id="Fill-310" fill="#333232"></path>
            <path d="M1465.715,445.71175 C1465.205,445.71175 1464.685,445.51575 1464.295,445.12575 L1454.585,435.41475 C1453.805,434.63375 1453.805,433.36775 1454.585,432.58575 C1455.365,431.80475 1456.635,431.80475 1457.415,432.58575 L1467.125,442.29675 C1467.905,443.07775 1467.905,444.34475 1467.125,445.12575 C1466.735,445.51575 1466.225,445.71175 1465.715,445.71175" id="Fill-311" fill="#333232"></path>
            <path d="M1484.275,444.27225 C1483.765,444.27225 1483.245,444.07725 1482.855,443.68625 L1446.585,407.41425 C1445.805,406.63325 1445.805,405.36625 1446.585,404.58525 C1447.375,403.80525 1448.635,403.80425 1449.415,404.58625 L1485.685,440.85825 C1486.465,441.63925 1486.465,442.90625 1485.685,443.68725 C1485.295,444.07725 1484.785,444.27225 1484.275,444.27225" id="Fill-312" fill="#333232"></path>
            <path d="M1487.785,421.78175 C1487.275,421.78175 1486.755,421.58675 1486.365,421.19575 L1477.585,412.41375 C1476.805,411.63275 1476.805,410.36675 1477.585,409.58575 C1478.365,408.80475 1479.635,408.80475 1480.415,409.58575 L1489.195,418.36775 C1489.975,419.14875 1489.975,420.41575 1489.195,421.19675 C1488.805,421.58675 1488.295,421.78175 1487.785,421.78175" id="Fill-313" fill="#333232"></path>
            <path d="M1420,503.726 C1418.89,503.726 1418,502.83 1418,501.726 L1418,487 C1418,485.895 1418.89,485 1420,485 C1421.1,485 1422,485.895 1422,487 L1422,501.726 C1422,502.83 1421.1,503.726 1420,503.726" id="Fill-314" fill="#333232"></path>
            <path d="M1435,503.726 C1433.9,503.726 1433,502.83 1433,501.726 L1433,487 C1433,485.895 1433.9,485 1435,485 C1436.11,485 1437,485.895 1437,487 L1437,501.726 C1437,502.83 1436.11,503.726 1435,503.726" id="Fill-315" fill="#333232"></path>
            <path d="M1451,503.726 C1449.9,503.726 1449,502.83 1449,501.726 L1449,487 C1449,485.895 1449.9,485 1451,485 C1452.11,485 1453,485.895 1453,487 L1453,501.726 C1453,502.83 1452.11,503.726 1451,503.726" id="Fill-316" fill="#333232"></path>
            <path d="M1466,503.726 C1464.9,503.726 1464,502.83 1464,501.726 L1464,487 C1464,485.895 1464.9,485 1466,485 C1467.11,485 1468,485.895 1468,487 L1468,501.726 C1468,502.83 1467.11,503.726 1466,503.726" id="Fill-317" fill="#333232"></path>
            <path d="M1482,503.726 C1480.9,503.726 1480,502.83 1480,501.726 L1480,487 C1480,485.895 1480.9,485 1482,485 C1483.1,485 1484,485.895 1484,487 L1484,501.726 C1484,502.83 1483.1,503.726 1482,503.726" id="Fill-318" fill="#333232"></path>
            <path d="M1184.94,352 C1181.66,352 1179,354.667 1179,357.945 C1179,361.222 1181.66,363.888 1184.94,363.888 C1188.22,363.888 1190.88,361.222 1190.88,357.945 C1190.88,354.667 1188.22,352 1184.94,352 L1184.94,352 Z M1184.94,367.888 C1179.46,367.888 1175,363.428 1175,357.945 C1175,352.461 1179.46,348 1184.94,348 C1190.42,348 1194.88,352.461 1194.88,357.945 C1194.88,363.428 1190.42,367.888 1184.94,367.888 L1184.94,367.888 Z" id="Fill-319" fill="#50B5D1"></path>
            <path d="M1184.94,386 C1181.66,386 1179,388.667 1179,391.945 C1179,395.222 1181.66,397.888 1184.94,397.888 C1188.22,397.888 1190.88,395.222 1190.88,391.945 C1190.88,388.667 1188.22,386 1184.94,386 L1184.94,386 Z M1184.94,401.888 C1179.46,401.888 1175,397.427 1175,391.945 C1175,386.461 1179.46,382 1184.94,382 C1190.42,382 1194.88,386.461 1194.88,391.945 C1194.88,397.427 1190.42,401.888 1184.94,401.888 L1184.94,401.888 Z" id="Fill-320" fill="#50B5D1"></path>
            <path d="M1180.26,489 L1153,489 C1151.9,489 1151,488.104 1151,487 C1151,485.895 1151.9,485 1153,485 L1180.26,485 C1181.37,485 1182.26,485.895 1182.26,487 C1182.26,488.104 1181.37,489 1180.26,489" id="Fill-321" fill="#333232"></path>
            <path d="M1180.26,475 L1153,475 C1151.9,475 1151,474.105 1151,473 C1151,471.896 1151.9,471 1153,471 L1180.26,471 C1181.37,471 1182.26,471.896 1182.26,473 C1182.26,474.105 1181.37,475 1180.26,475" id="Fill-322" fill="#333232"></path>
            <path d="M1180.26,461 L1153,461 C1151.9,461 1151,460.104 1151,459 C1151,457.895 1151.9,457 1153,457 L1180.26,457 C1181.37,457 1182.26,457.895 1182.26,459 C1182.26,460.104 1181.37,461 1180.26,461" id="Fill-323" fill="#333232"></path>
            <path d="M1180.26,447 L1153,447 C1151.9,447 1151,446.105 1151,445 C1151,443.896 1151.9,443 1153,443 L1180.26,443 C1181.37,443 1182.26,443.896 1182.26,445 C1182.26,446.105 1181.37,447 1180.26,447" id="Fill-324" fill="#333232"></path>
            <path d="M1201.645,297.64975 C1201.135,297.64975 1200.625,297.45475 1200.235,297.06375 L1193.585,290.41475 C1192.805,289.63375 1192.805,288.36675 1193.585,287.58575 C1194.365,286.80475 1195.635,286.80475 1196.415,287.58575 L1203.065,294.23575 C1203.845,295.01675 1203.845,296.28275 1203.065,297.06375 C1202.675,297.45475 1202.165,297.64975 1201.645,297.64975" id="Fill-325" fill="#333232"></path>
            <path d="M263,512.79 L296.657,512.79 L296.657,469.829 C296.657,460.55 289.108,453 279.829,453 C270.549,453 263,460.55 263,469.829 L263,512.79 L263,512.79 Z M300.657,516.79 L259,516.79 L259,469.829 C259,458.344 268.344,449 279.829,449 C291.314,449 300.657,458.344 300.657,469.829 L300.657,516.79 L300.657,516.79 Z" id="Fill-326" fill="#333232"></path>
            <path d="M363,512.51 L396.657,512.51 L396.657,493.829 C396.657,485.413 390.376,478.243 382.047,477.151 C381.279,477.049 380.555,477 379.829,477 C370.549,477 363,484.55 363,493.829 L363,512.51 L363,512.51 Z M400.657,516.51 L359,516.51 L359,493.829 C359,482.344 368.343,473 379.829,473 C380.733,473 381.629,473.061 382.569,473.185 C392.88,474.537 400.657,483.412 400.657,493.829 L400.657,516.51 L400.657,516.51 Z" id="Fill-327" fill="#333232"></path>
            <path d="M305.045,477 L255,477 C253.896,477 253,476.105 253,475 C253,473.896 253.896,473 255,473 L305.045,473 C306.15,473 307.045,473.896 307.045,475 C307.045,476.105 306.15,477 305.045,477" id="Fill-328" fill="#333232"></path>
            <path d="M405.045,499 L355,499 C353.896,499 353,498.105 353,497 C353,495.896 353.896,495 355,495 L405.045,495 C406.15,495 407.045,495.896 407.045,497 C407.045,498.105 406.15,499 405.045,499" id="Fill-329" fill="#333232"></path>
            <path d="M382.567,477.432 C381.463,477.432 380.567,476.537 380.567,475.432 L380.567,437 L292.818,437 C286.853,437 282,441.854 282,447.819 L282,450.985 C282,452.09 281.104,452.985 280,452.985 C278.895,452.985 278,452.09 278,450.985 L278,447.819 C278,439.648 284.647,433 292.818,433 L384.567,433 L384.567,475.432 C384.567,476.537 383.672,477.432 382.567,477.432" id="Fill-330" fill="#333232"></path>
            <path d="M172,512.79 L235.883,512.79 L235.883,453 L172,453 L172,512.79 Z M168,516.79 L239.883,516.79 L239.883,449 L168,449 L168,516.79 Z" id="Fill-331" fill="#333232"></path>
            <path d="M213.652,452.722 C212.547,452.722 211.652,451.827 211.652,450.722 L211.652,408 L196,408 L196,450.722 C196,451.827 195.105,452.722 194,452.722 C192.896,452.722 192,451.827 192,450.722 L192,404 L215.652,404 L215.652,450.722 C215.652,451.827 214.756,452.722 213.652,452.722" id="Fill-332" fill="#333232"></path>
            <path d="M427,512.701 L487.413,512.701 L487.413,209 L427,209 L427,512.701 Z M423,516.701 L491.413,516.701 L491.413,205 L423,205 L423,516.701 Z" id="Fill-333" fill="#333232"></path>
            <path d="M495.802,246 L419,246 C417.896,246 417,245.104 417,244 C417,242.895 417.896,242 419,242 L495.802,242 C496.907,242 497.802,242.895 497.802,244 C497.802,245.104 496.907,246 495.802,246" id="Fill-334" fill="#333232"></path>
            <path d="M495.802,302 L419,302 C417.896,302 417,301.105 417,300 C417,298.896 417.896,298 419,298 L495.802,298 C496.907,298 497.802,298.896 497.802,300 C497.802,301.105 496.907,302 495.802,302" id="Fill-335" fill="#333232"></path>
            <path d="M495.802,359 L419,359 C417.896,359 417,358.104 417,357 C417,355.895 417.896,355 419,355 L495.802,355 C496.907,355 497.802,355.895 497.802,357 C497.802,358.104 496.907,359 495.802,359" id="Fill-336" fill="#333232"></path>
            <path d="M328.601249,389.734688 C328.215249,389.734688 327.825249,389.623688 327.481249,389.390688 L228.879249,322.656688 C227.964249,322.037688 227.725249,320.794688 228.343249,319.879688 C228.962249,318.964688 230.206249,318.724688 231.121249,319.343688 L329.724249,386.077688 C330.638249,386.697688 330.878249,387.940688 330.259249,388.855688 C329.872249,389.426688 329.242249,389.734688 328.601249,389.734688" id="Fill-337" fill="#333232"></path>
            <path d="M328.600932,407.732424 C328.214932,407.732424 327.824932,407.620424 327.480932,407.388424 L228.879932,340.656424 C227.964932,340.038424 227.724932,338.794424 228.342932,337.879424 C228.960932,336.965424 230.204932,336.724424 231.119932,337.343424 L239.047932,342.703424 L329.723932,404.075424 C330.637932,404.694424 330.877932,405.938424 330.258932,406.853424 C329.871932,407.424424 329.241932,407.732424 328.600932,407.732424" id="Fill-338" fill="#333232"></path>
            <path d="M425.044497,387.093741 C424.658497,387.093741 424.268497,386.982741 423.925497,386.749741 L318.878497,315.655741 C317.964497,315.036741 317.724497,313.792741 318.344497,312.878741 C318.963497,311.964741 320.206497,311.724741 321.121497,312.343741 L426.167497,383.436741 C427.081497,384.055741 427.321497,385.299741 426.702497,386.213741 C426.316497,386.785741 425.685497,387.093741 425.044497,387.093741" id="Fill-339" fill="#333232"></path>
            <path d="M425.044497,405.094762 C424.658497,405.094762 424.268497,404.983762 423.925497,404.750762 L318.878497,333.655762 C317.964497,333.036762 317.724497,331.792762 318.344497,330.878762 C318.964497,329.963762 320.208497,329.724762 321.122497,330.344762 L329.050497,335.715762 L426.167497,401.437762 C427.081497,402.057762 427.321497,403.300762 426.702497,404.215762 C426.316497,404.786762 425.685497,405.094762 425.044497,405.094762" id="Fill-340" fill="#333232"></path>
            <path d="M414.170741,428.16318 C413.785741,428.16318 413.395741,428.05218 413.051741,427.81918 L375.878741,402.65718 C374.964741,402.03818 374.724741,400.79418 375.343741,399.87918 C375.962741,398.96518 377.205741,398.72418 378.121741,399.34418 L415.293741,424.50718 C416.208741,425.12618 416.448741,426.36918 415.829741,427.28418 C415.442741,427.85518 414.812741,428.16318 414.170741,428.16318" id="Fill-341" fill="#333232"></path>
            <path d="M414.035932,445.556688 C413.650932,445.556688 413.260932,445.445688 412.917932,445.212688 L392.879932,431.656688 C391.964932,431.037688 391.724932,429.794688 392.342932,428.879688 C392.962932,427.964688 394.206932,427.724688 395.120932,428.343688 L415.158932,441.899688 C416.073932,442.518688 416.313932,443.761688 415.694932,444.676688 C415.307932,445.248688 414.677932,445.556688 414.035932,445.556688" id="Fill-342" fill="#333232"></path>
            <path d="M309.168741,412.16118 C308.783741,412.16118 308.393741,412.04918 308.049741,411.81718 L270.878741,386.65618 C269.964741,386.03718 269.724741,384.79418 270.343741,383.87918 C270.962741,382.96518 272.205741,382.72418 273.120741,383.34418 L310.291741,408.50418 C311.206741,409.12318 311.446741,410.36718 310.826741,411.28218 C310.440741,411.85318 309.810741,412.16118 309.168741,412.16118" id="Fill-343" fill="#333232"></path>
            <path d="M309.035196,429.556249 C308.650196,429.556249 308.260196,429.444249 307.917196,429.212249 L287.880196,415.656249 C286.964196,415.037249 286.725196,413.794249 287.343196,412.879249 C287.963196,411.964249 289.206196,411.725249 290.121196,412.343249 L310.158196,425.899249 C311.073196,426.518249 311.313196,427.761249 310.694196,428.676249 C310.307196,429.248249 309.677196,429.556249 309.035196,429.556249" id="Fill-344" fill="#333232"></path>
            <path d="M230,340.493 C228.895,340.493 228,339.598 228,338.493 L228,321 C228,319.896 228.895,319 230,319 C231.104,319 232,319.896 232,321 L232,338.493 C232,339.598 231.104,340.493 230,340.493" id="Fill-345" fill="#333232"></path>
            <path d="M320,333.49 C318.895,333.49 318,332.594 318,331.49 L318,314 C318,312.896 318.895,312 320,312 C321.104,312 322,312.896 322,314 L322,331.49 C322,332.594 321.104,333.49 320,333.49" id="Fill-346" fill="#333232"></path>
            <path d="M238,503.944 C236.895,503.944 236,503.048 236,501.944 L236,344 C236,342.896 236.895,342 238,342 C239.104,342 240,342.896 240,344 L240,501.944 C240,503.048 239.104,503.944 238,503.944" id="Fill-347" fill="#333232"></path>
            <path d="M328,516.367 C326.895,516.367 326,515.471 326,514.367 L326,337 C326,335.896 326.895,335 328,335 C329.104,335 330,335.896 330,337 L330,514.367 C330,515.471 329.104,516.367 328,516.367" id="Fill-348" fill="#333232"></path>
            <path d="M490.089,516 L170,516 C168.895,516 168,515.104 168,514 C168,512.895 168.895,512 170,512 L490.089,512 C491.193,512 492.089,512.895 492.089,514 C492.089,515.104 491.193,516 490.089,516" id="Fill-349" fill="#333232"></path>
            <path d="M213.652,428 L194,428 C192.896,428 192,427.105 192,426 C192,424.896 192.896,424 194,424 L213.652,424 C214.756,424 215.652,424.896 215.652,426 C215.652,427.105 214.756,428 213.652,428" id="Fill-350" fill="#333232"></path>
            <path d="M443,470.451 C441.896,470.451 441,469.555 441,468.451 L441,463 C441,461.895 441.896,461 443,461 C444.105,461 445,461.895 445,463 L445,468.451 C445,469.555 444.105,470.451 443,470.451" id="Fill-351" fill="#333232"></path>
            <path d="M458,470.451 C456.895,470.451 456,469.555 456,468.451 L456,463 C456,461.895 456.895,461 458,461 C459.104,461 460,461.895 460,463 L460,468.451 C460,469.555 459.104,470.451 458,470.451" id="Fill-352" fill="#333232"></path>
            <path d="M472,470.451 C470.895,470.451 470,469.555 470,468.451 L470,463 C470,461.895 470.895,461 472,461 C473.104,461 474,461.895 474,463 L474,468.451 C474,469.555 473.104,470.451 472,470.451" id="Fill-353" fill="#333232"></path>
            <path d="M443,448.45 C441.896,448.45 441,447.554 441,446.45 L441,441 C441,439.896 441.896,439 443,439 C444.105,439 445,439.896 445,441 L445,446.45 C445,447.554 444.105,448.45 443,448.45" id="Fill-354" fill="#333232"></path>
            <path d="M458,448.45 C456.895,448.45 456,447.554 456,446.45 L456,441 C456,439.896 456.895,439 458,439 C459.104,439 460,439.896 460,441 L460,446.45 C460,447.554 459.104,448.45 458,448.45" id="Fill-355" fill="#333232"></path>
            <path d="M472,448.45 C470.895,448.45 470,447.554 470,446.45 L470,441 C470,439.896 470.895,439 472,439 C473.104,439 474,439.896 474,441 L474,446.45 C474,447.554 473.104,448.45 472,448.45" id="Fill-356" fill="#333232"></path>
            <path d="M189,501.451 C187.896,501.451 187,500.555 187,499.451 L187,494 C187,492.896 187.896,492 189,492 C190.105,492 191,492.896 191,494 L191,499.451 C191,500.555 190.105,501.451 189,501.451" id="Fill-357" fill="#333232"></path>
            <path d="M204,501.451 C202.896,501.451 202,500.555 202,499.451 L202,494 C202,492.896 202.896,492 204,492 C205.105,492 206,492.896 206,494 L206,499.451 C206,500.555 205.105,501.451 204,501.451" id="Fill-358" fill="#333232"></path>
            <path d="M219,501.451 C217.895,501.451 217,500.555 217,499.451 L217,494 C217,492.896 217.895,492 219,492 C220.104,492 221,492.896 221,494 L221,499.451 C221,500.555 220.104,501.451 219,501.451" id="Fill-359" fill="#333232"></path>
            <path d="M189,478.451 C187.896,478.451 187,477.555 187,476.451 L187,471 C187,469.896 187.896,469 189,469 C190.105,469 191,469.896 191,471 L191,476.451 C191,477.555 190.105,478.451 189,478.451" id="Fill-360" fill="#333232"></path>
            <path d="M204,478.451 C202.896,478.451 202,477.555 202,476.451 L202,471 C202,469.896 202.896,469 204,469 C205.105,469 206,469.896 206,471 L206,476.451 C206,477.555 205.105,478.451 204,478.451" id="Fill-361" fill="#333232"></path>
            <path d="M219,478.451 C217.895,478.451 217,477.555 217,476.451 L217,471 C217,469.896 217.895,469 219,469 C220.104,469 221,469.896 221,471 L221,476.451 C221,477.555 220.104,478.451 219,478.451" id="Fill-362" fill="#333232"></path>
            <path d="M253,403.274 L258.91,403.274 L258.91,377 L253,377 L253,403.274 Z M249,407.274 L262.91,407.274 L262.91,373 L249,373 L249,407.274 Z" id="Fill-363" fill="#50B5D1"></path>
            <path d="M347,403.274 L352.91,403.274 L352.91,377 L347,377 L347,403.274 Z M343,407.274 L356.91,407.274 L356.91,373 L343,373 L343,407.274 Z" id="Fill-364" fill="#50B5D1"></path>
            <path d="M183.687,369.033 L184.38,370.449 C186.663,375.112 191.057,378.458 196.134,379.4 L198.582,379.855 L197.611,382.147 C197.371,382.714 197.249,383.316 197.249,383.935 C197.249,386.468 199.311,388.529 201.846,388.529 C204.38,388.529 206.441,386.468 206.441,383.935 C206.441,382.91 206.106,381.937 205.473,381.123 L203.942,379.157 L206.192,378.088 C211.912,375.371 215.608,369.539 215.608,363.231 C215.608,358.308 213.428,353.683 209.626,350.54 L208,349.196 L209.429,347.644 C213.413,343.313 215.608,337.689 215.608,331.808 C215.608,318.909 205.114,308.414 192.214,308.414 C191.048,308.414 189.872,308.502 188.719,308.675 L187.134,308.912 L186.557,307.417 C184.582,302.304 179.773,299 174.306,299 C167.06,299 161.165,304.895 161.165,312.142 C161.165,313.979 161.545,315.768 162.295,317.461 L162.99,319.029 L161.546,319.955 C153.69,324.989 149,333.551 149,342.858 C149,357.847 161.195,370.042 176.184,370.042 C178.167,370.042 180.173,369.818 182.147,369.377 L183.687,369.033 L183.687,369.033 Z M201.846,392.529 C197.105,392.529 193.249,388.674 193.249,383.935 C193.249,383.563 193.272,383.194 193.319,382.83 C188.391,381.358 184.148,378.036 181.524,373.578 C179.75,373.886 177.96,374.042 176.184,374.042 C158.989,374.042 145,360.053 145,342.858 C145,332.729 149.841,323.371 158.03,317.508 C157.455,315.776 157.165,313.977 157.165,312.142 C157.165,302.69 164.854,295 174.306,295 C180.91,295 186.779,298.693 189.656,304.533 C190.507,304.454 191.363,304.414 192.214,304.414 C207.319,304.414 219.608,316.703 219.608,331.808 C219.608,338.024 217.515,343.995 213.677,348.828 C217.469,352.647 219.608,357.793 219.608,363.231 C219.608,370.355 215.82,376.989 209.801,380.676 C210.223,381.7 210.441,382.8 210.441,383.935 C210.441,388.674 206.585,392.529 201.846,392.529 L201.846,392.529 Z" id="Fill-365" fill="#B0B0B0"></path>
            <path d="M783.371,490 L699,490 C697.896,490 697,489.104 697,488 C697,486.895 697.896,486 699,486 L783.371,486 C784.476,486 785.371,486.895 785.371,488 C785.371,489.104 784.476,490 783.371,490" id="Fill-372" fill="#333232"></path>
            <path d="M899.325,481.32175 C898.805,481.32175 898.295,481.12675 897.905,480.73575 L884.585,467.41375 C883.805,466.63275 883.805,465.36675 884.585,464.58575 C885.365,463.80475 886.635,463.80475 887.415,464.58575 L900.735,477.90775 C901.515,478.68875 901.515,479.95475 900.735,480.73575 C900.345,481.12675 899.835,481.32175 899.325,481.32175" id="Fill-373" fill="#333232"></path>
            <path d="M898.415,500.41375 C897.905,500.41375 897.385,500.21875 896.995,499.82875 L873.585,476.41475 C872.805,475.63275 872.805,474.36675 873.585,473.58575 C874.365,472.80475 875.635,472.80475 876.415,473.58575 L899.825,496.99975 C900.605,497.78075 900.605,499.04675 899.825,499.82875 C899.435,500.21875 898.925,500.41375 898.415,500.41375" id="Fill-374" fill="#333232"></path>
            <path d="M1680.432,516 L21,516 C19.895,516 19,515.105 19,514 C19,512.896 19.895,512 21,512 L1680.432,512 C1681.532,512 1682.432,512.896 1682.432,514 C1682.432,515.105 1681.532,516 1680.432,516" id="Fill-375" fill="#333232"></path>
        </g>
    </g>
</svg>