<?xml version="1.0" encoding="UTF-8" standalone="no"?>
<svg width="1707px" height="635px" viewBox="0 0 1707 635" version="1.1" xmlns="http://www.w3.org/2000/svg" xmlns:xlink="http://www.w3.org/1999/xlink">
    <!-- Generator: Sketch 3.7 (28169) - http://www.bohemiancoding.com/sketch -->
    <title>2</title>
    <desc>Created with Sketch.</desc>
    <defs></defs>
    <g id="Page-1" stroke="none" stroke-width="1" fill="none" fill-rule="evenodd">
        <g id="Artboard-1" fill="#47A13C">
            <path d="M1639.16,79 C1634.11,79 1630,83.107 1630,88.155 C1630,93.203 1634.11,97.31 1639.16,97.31 C1644.21,97.31 1648.31,93.203 1648.31,88.155 C1648.31,83.107 1644.21,79 1639.16,79 L1639.16,79 Z M1639.16,101.31 C1631.9,101.31 1626,95.409 1626,88.155 C1626,80.901 1631.9,75 1639.16,75 C1646.41,75 1652.31,80.901 1652.31,88.155 C1652.31,95.409 1646.41,101.31 1639.16,101.31 L1639.16,101.31 Z" id="Fill-376"></path>
            <path d="M1691.01,5 C1685.49,5 1681,9.487 1681,15.003 C1681,20.519 1685.49,25.007 1691.01,25.007 C1696.52,25.007 1701.01,20.519 1701.01,15.003 C1701.01,9.487 1696.52,5 1691.01,5 L1691.01,5 Z M1691.01,29.007 C1683.29,29.007 1677,22.725 1677,15.003 C1677,7.282 1683.29,1 1691.01,1 C1698.73,1 1705.01,7.282 1705.01,15.003 C1705.01,22.725 1698.73,29.007 1691.01,29.007 L1691.01,29.007 Z" id="Fill-377"></path>
            <path d="M948.459334,180 C947.039334,180 945.699334,180.541 944.669334,181.524 C942.499334,183.609 942.439334,187.071 944.519334,189.242 C945.559334,190.323 946.959334,190.918 948.459334,190.918 C949.879334,190.918 951.219334,190.377 952.239334,189.395 C954.409334,187.307 954.479334,183.844 952.389334,181.675 C951.359334,180.595 949.959334,180 948.459334,180 L948.459334,180 Z M948.459334,194.918 C945.859334,194.918 943.439334,193.887 941.639334,192.014 C938.019334,188.253 938.139334,182.253 941.899334,178.64 C943.669334,176.937 945.999334,176 948.459334,176 C951.059334,176 953.479334,177.031 955.279334,178.902 C958.889334,182.661 958.769334,188.661 955.009334,192.278 C953.239334,193.981 950.919334,194.918 948.459334,194.918 L948.459334,194.918 Z" id="Fill-272"></path>
            <path d="M999.451916,173 C998.041916,173 996.691916,173.541 995.671916,174.525 C994.621916,175.535 994.031916,176.895 994.001916,178.353 C993.971916,179.811 994.511916,181.193 995.521916,182.243 C996.561916,183.324 997.961916,183.92 999.461916,183.92 C1000.87192,183.92 1002.22192,183.378 1003.24192,182.395 C1004.29192,181.385 1004.89192,180.026 1004.91192,178.568 C1004.94192,177.11 1004.40192,175.729 1003.39192,174.677 C1002.35192,173.596 1000.95192,173 999.451916,173 L999.451916,173 Z M999.461916,187.92 C996.861916,187.92 994.441916,186.888 992.641916,185.016 C990.881916,183.196 989.951916,180.801 990.001916,178.274 C990.051916,175.747 991.081916,173.392 992.901916,171.641 C994.671916,169.938 997.001916,169 999.451916,169 C1002.05192,169 1004.48192,170.032 1006.28192,171.905 C1008.03192,173.727 1008.96192,176.121 1008.91192,178.647 C1008.86192,181.173 1007.83192,183.529 1006.01192,185.279 C1004.24192,186.982 1001.91192,187.92 999.461916,187.92 L999.461916,187.92 Z" id="Fill-275"></path>
            <path d="M1556.48,47 C1545.19,47 1536,56.188 1536,67.482 C1536,78.776 1545.19,87.964 1556.48,87.964 C1567.77,87.964 1576.96,78.776 1576.96,67.482 C1576.96,56.188 1567.77,47 1556.48,47 L1556.48,47 Z M1556.48,91.964 C1542.98,91.964 1532,80.981 1532,67.482 C1532,53.983 1542.98,43 1556.48,43 C1569.98,43 1580.96,53.983 1580.96,67.482 C1580.96,80.981 1569.98,91.964 1556.48,91.964 L1556.48,91.964 Z" id="Fill-183"></path>
            <path d="M805.125,62 C797.337,62 791,68.337 791,76.125 C791,83.914 797.337,90.251 805.125,90.251 C812.914,90.251 819.251,83.914 819.251,76.125 C819.251,68.337 812.914,62 805.125,62 L805.125,62 Z M805.125,94.251 C795.131,94.251 787,86.12 787,76.125 C787,66.131 795.131,58 805.125,58 C815.12,58 823.251,66.131 823.251,76.125 C823.251,86.12 815.12,94.251 805.125,94.251 L805.125,94.251 Z" id="Fill-187"></path>
            <path d="M842.37789,166 C841.23989,166 840.15989,166.434 839.33889,167.223 C837.59889,168.897 837.54389,171.677 839.21889,173.419 C840.05289,174.286 841.17489,174.764 842.37989,174.764 C843.51689,174.764 844.59489,174.33 845.41489,173.541 C847.15689,171.866 847.21189,169.086 845.53689,167.344 C844.70389,166.477 843.58189,166 842.37789,166 L842.37789,166 Z M842.37989,178.764 C840.07689,178.764 837.92989,177.85 836.33389,176.191 C833.13289,172.858 833.23789,167.542 836.56689,164.339 C838.13889,162.83 840.20189,162 842.37789,162 C844.67989,162 846.82589,162.913 848.42089,164.572 C851.62389,167.904 851.51889,173.221 848.18789,176.424 C846.61889,177.933 844.55589,178.764 842.37989,178.764 L842.37989,178.764 Z" id="Fill-273"></path>
            <path d="M847.377755,242 C846.239755,242 845.160755,242.435 844.338755,243.223 C842.599755,244.897 842.544755,247.677 844.218755,249.419 C845.052755,250.287 846.175755,250.765 847.379755,250.765 C848.517755,250.765 849.595755,250.331 850.415755,249.542 C852.156755,247.867 852.211755,245.087 850.537755,243.345 C849.703755,242.478 848.581755,242 847.377755,242 L847.377755,242 Z M847.379755,254.765 C845.077755,254.765 842.930755,253.851 841.334755,252.191 C838.132755,248.859 838.237755,243.543 841.566755,240.339 C843.138755,238.83 845.201755,238 847.377755,238 C849.679755,238 851.825755,238.914 853.420755,240.573 C856.623755,243.905 856.523755,249.222 853.187755,252.425 C851.618755,253.934 849.556755,254.765 847.379755,254.765 L847.379755,254.765 Z" id="Fill-274"></path>
            <path d="M815.788,208 C809.288,208 804,213.287 804,219.786 C804,226.285 809.288,231.573 815.788,231.573 C822.287,231.573 827.574,226.285 827.574,219.786 C827.574,213.287 822.287,208 815.788,208 L815.788,208 Z M815.788,235.573 C807.083,235.573 800,228.491 800,219.786 C800,211.081 807.083,204 815.788,204 C824.492,204 831.574,211.081 831.574,219.786 C831.574,228.491 824.492,235.573 815.788,235.573 L815.788,235.573 Z" id="Fill-276"></path>
            <path d="M229.3,275 C225.826,275 223,277.826 223,281.3 C223,284.774 225.826,287.6 229.3,287.6 C232.774,287.6 235.6,284.774 235.6,281.3 C235.6,277.826 232.774,275 229.3,275 L229.3,275 Z M229.3,291.6 C223.621,291.6 219,286.979 219,281.3 C219,275.62 223.621,271 229.3,271 C234.979,271 239.6,275.62 239.6,281.3 C239.6,286.979 234.979,291.6 229.3,291.6 L229.3,291.6 Z" id="Fill-366"></path>
            <path d="M194.414,236 C190.326,236 187,239.326 187,243.413 C187,247.502 190.326,250.829 194.414,250.829 C198.504,250.829 201.83,247.502 201.83,243.413 C201.83,239.326 198.504,236 194.414,236 L194.414,236 Z M194.414,254.829 C188.12,254.829 183,249.708 183,243.413 C183,237.12 188.12,232 194.414,232 C200.709,232 205.83,237.12 205.83,243.413 C205.83,249.708 200.709,254.829 194.414,254.829 L194.414,254.829 Z" id="Fill-367"></path>
            <path d="M241.938,219 C239.215,219 237,221.215 237,223.936 C237,226.658 239.215,228.873 241.938,228.873 C244.66,228.873 246.874,226.658 246.874,223.936 C246.874,221.215 244.66,219 241.938,219 L241.938,219 Z M241.938,232.873 C237.009,232.873 233,228.864 233,223.936 C233,219.009 237.009,215 241.938,215 C246.865,215 250.874,219.009 250.874,223.936 C250.874,228.864 246.865,232.873 241.938,232.873 L241.938,232.873 Z" id="Fill-368"></path>
            <path d="M477.36,138 C472.199,138 468,142.198 468,147.359 C468,152.52 472.199,156.719 477.36,156.719 C482.52,156.719 486.719,152.52 486.719,147.359 C486.719,142.198 482.52,138 477.36,138 L477.36,138 Z M477.36,160.719 C469.993,160.719 464,154.726 464,147.359 C464,139.993 469.993,134 477.36,134 C484.726,134 490.719,139.993 490.719,147.359 C490.719,154.726 484.726,160.719 477.36,160.719 L477.36,160.719 Z" id="Fill-369"></path>
            <path d="M446.847,75 C433.698,75 423,85.697 423,98.846 C423,111.995 433.698,122.693 446.847,122.693 C459.996,122.693 470.694,111.995 470.694,98.846 C470.694,85.697 459.996,75 446.847,75 L446.847,75 Z M446.847,126.693 C431.492,126.693 419,114.201 419,98.846 C419,83.491 431.492,71 446.847,71 C462.202,71 474.694,83.491 474.694,98.846 C474.694,114.201 462.202,126.693 446.847,126.693 L446.847,126.693 Z" id="Fill-370"></path>
            <path d="M450.573,166 C446.398,166 443,169.397 443,173.574 C443,177.749 446.398,181.146 450.573,181.146 C454.749,181.146 458.147,177.749 458.147,173.574 C458.147,169.397 454.749,166 450.573,166 L450.573,166 Z M450.573,185.146 C444.192,185.146 439,179.955 439,173.574 C439,167.192 444.192,162 450.573,162 C456.955,162 462.147,167.192 462.147,173.574 C462.147,179.955 456.955,185.146 450.573,185.146 L450.573,185.146 Z" id="Fill-371"></path>
            <path d="M1354.59,102 C1347.65,102 1342,107.646 1342,114.586 C1342,121.526 1347.65,127.172 1354.59,127.172 C1361.53,127.172 1367.18,121.526 1367.18,114.586 C1367.18,107.646 1361.53,102 1354.59,102 L1354.59,102 Z M1354.59,131.172 C1345.45,131.172 1338,123.732 1338,114.586 C1338,105.441 1345.45,98 1354.59,98 C1363.74,98 1371.18,105.441 1371.18,114.586 C1371.18,123.732 1363.74,131.172 1354.59,131.172 L1354.59,131.172 Z" id="Fill-378"></path>
        </g>
    </g>
</svg>