<?xml version="1.0" encoding="UTF-8" standalone="no"?>
<svg width="1706px" height="635px" viewBox="0 0 1706 635" version="1.1" xmlns="http://www.w3.org/2000/svg" xmlns:xlink="http://www.w3.org/1999/xlink">
    <!-- Generator: Sketch 3.7 (28169) - http://www.bohemiancoding.com/sketch -->
    <title>3</title>
    <desc>Created with Sketch.</desc>
    <defs></defs>
    <g id="Page-1" stroke="none" stroke-width="1" fill="none" fill-rule="evenodd">
        <g id="Artboard-1" fill="#4FB5D1">
            <path d="M1688.26,417.011 C1687.15,417.011 1686.26,416.115 1686.26,415.011 C1686.26,384.847 1675.65,355.485 1656.39,332.334 C1646.33,320.24 1634.31,310.178 1620.66,302.429 L1619.15,301.574 L1619.78,299.962 C1624.4,288.157 1626.74,275.693 1626.74,262.916 C1626.74,206.775 1581.06,161.101 1524.92,161.101 C1521.34,161.101 1517.71,161.293 1514.12,161.671 L1512.46,161.846 L1511.99,160.252 C1500.21,120.56 1475.45,84.855 1442.27,59.714 C1407.98,33.733 1367.06,20 1323.92,20 C1274.22,20 1226.8,38.622 1190.42,72.437 C1154.22,106.073 1132.18,151.628 1128.36,200.709 L1128.13,203.678 L1125.46,202.341 C1112.83,195.992 1099.22,192.774 1085,192.774 C1083.89,192.774 1083,191.878 1083,190.774 C1083,189.669 1083.89,188.774 1085,188.774 C1098.86,188.774 1112.18,191.704 1124.62,197.488 C1129.15,148.515 1151.48,103.162 1187.7,69.507 C1224.82,35.002 1273.2,16 1323.92,16 C1367.94,16 1409.7,30.013 1444.68,56.526 C1478.1,81.845 1503.14,117.662 1515.35,157.533 C1518.54,157.246 1521.75,157.101 1524.92,157.101 C1583.27,157.101 1630.74,204.57 1630.74,262.916 C1630.74,275.614 1628.51,288.017 1624.12,299.809 C1637.58,307.676 1649.46,317.752 1659.47,329.775 C1679.32,353.644 1690.26,383.914 1690.26,415.011 C1690.26,416.115 1689.36,417.011 1688.26,417.011" id="Fill-182"></path>
            <path d="M512.000426,189.968 C511.483426,189.968 510.967426,189.769 510.575426,189.373 C509.800426,188.586 509.809426,187.32 510.595426,186.544 C541.690426,155.885 582.864426,139 626.532426,139 C629.332426,139 632.090426,139.07 634.728426,139.209 C635.831426,139.267 636.678426,140.208 636.620426,141.311 C636.562426,142.414 635.619426,143.253 634.518426,143.203 C631.949426,143.068 629.262426,143 626.532426,143 C583.921426,143 543.745426,159.476 513.404426,189.392 C513.014426,189.777 512.507426,189.968 512.000426,189.968" id="Fill-184"></path>
            <path d="M11.686,401.763 C10.768,401.763 9.941,401.127 9.734,400.194 C6.593,385.968 5,371.344 5,356.727 C5,246.046 95.045,156 205.727,156 C241.166,156 276,165.364 306.463,183.078 C335.479,199.951 359.971,223.989 377.398,252.675 C386.362,248.174 395.888,244.961 405.742,243.117 C406.825,242.915 407.873,243.629 408.075,244.715 C408.278,245.801 407.563,246.846 406.477,247.049 C396.398,248.935 386.673,252.31 377.575,257.08 L375.897,257.96 L374.927,256.331 C357.793,227.516 333.423,203.382 304.453,186.536 C274.599,169.176 240.46,160 205.727,160 C97.251,160 9,248.252 9,356.727 C9,371.054 10.562,385.388 13.641,399.331 C13.879,400.41 13.197,401.477 12.119,401.715 C11.974,401.748 11.829,401.763 11.686,401.763" id="Fill-185"></path>
            <path d="M634.662,143.264 C633.684,143.265 632.829,142.546 632.685,141.549 C632.23,138.39 632,135.149 632,131.918 C632,94.468 662.472,64 699.928,64 C730.685,64 757.251,84.312 765.386,113.7 C782.719,105.227 801.353,100.935 820.817,100.935 C848.837,100.935 875.377,109.911 897.577,126.894 C898.447,127.565 898.617,128.82 897.947,129.697 C897.277,130.575 896.027,130.742 895.147,130.07 C873.657,113.626 847.95,104.935 820.817,104.935 C801.156,104.935 782.369,109.457 764.98,118.377 L762.712,119.541 L762.121,117.061 C755.242,88.175 729.668,68 699.928,68 C664.678,68 636,96.674 636,131.918 C636,134.959 636.217,138.008 636.644,140.979 C636.802,142.072 636.043,143.086 634.95,143.244 C634.853,143.258 634.757,143.264 634.662,143.264" id="Fill-186"></path>
        </g>
    </g>
</svg>